# Blender v2.78 (sub 0) OBJ File: 'rocket.blend'
# www.blender.org
mtllib rocket.mtl
o Cylinder
v -0.063375 0.602744 -1.686675
v -0.069191 0.601185 2.292707
v 0.309863 0.536698 -1.484894
v 0.309863 0.536698 2.326934
v 0.553679 0.246487 -1.686675
v 0.555237 0.240672 2.292706
v 0.602744 0.063375 -1.686675
v 0.601186 0.069191 2.292706
v 0.536698 -0.309863 -1.484894
v 0.536698 -0.309863 2.326934
v 0.246487 -0.553679 -1.686675
v 0.240672 -0.555237 2.292706
v 0.063375 -0.602744 -1.686675
v 0.069191 -0.601186 2.292706
v -0.309862 -0.536698 -1.484894
v -0.309862 -0.536698 2.326934
v -0.553679 -0.246487 -1.686675
v -0.555237 -0.240672 2.292706
v -0.602744 -0.063375 -1.686675
v -0.601186 -0.069191 2.292706
v -0.536698 0.309862 -1.484894
v -0.536698 0.309862 2.326934
v -0.246488 0.553679 -1.686675
v -0.240672 0.555237 2.292707
v -0.000000 0.619725 -0.998918
v -0.069191 0.601186 1.875185
v 0.309863 0.536698 1.840958
v 0.309863 0.536698 -0.998918
v 0.555237 0.240672 1.875185
v 0.536698 0.309863 -0.998918
v 0.601186 0.069191 1.875185
v 0.619725 0.000000 -0.998918
v 0.536698 -0.309863 1.840958
v 0.536698 -0.309863 -0.998918
v 0.240672 -0.555237 1.875185
v 0.309863 -0.536698 -0.998918
v 0.069191 -0.601186 1.875185
v 0.000000 -0.619725 -0.998918
v -0.309862 -0.536698 1.840958
v -0.309862 -0.536698 -0.998918
v -0.555237 -0.240672 1.875185
v -0.536698 -0.309863 -0.998918
v -0.601186 -0.069191 1.875185
v -0.619725 -0.000000 -0.998918
v -0.536698 0.309862 1.840958
v -0.536698 0.309862 -0.998918
v -0.240672 0.555237 1.875185
v -0.309863 0.536698 -0.998918
v -0.000000 0.567104 -0.878349
v -0.000000 0.567103 1.720389
v 0.283552 0.491126 1.720389
v 0.283552 0.491126 -0.878349
v 0.491126 0.283552 1.720389
v 0.491126 0.283552 -0.878349
v 0.567104 -0.000000 1.720389
v 0.567104 0.000000 -0.878349
v 0.491126 -0.283552 1.720389
v 0.491126 -0.283552 -0.878349
v 0.283552 -0.491126 1.720389
v 0.283552 -0.491126 -0.878349
v 0.000000 -0.567104 1.720389
v 0.000000 -0.567104 -0.878349
v -0.283552 -0.491126 1.720389
v -0.283552 -0.491126 -0.878349
v -0.491126 -0.283552 1.720389
v -0.491126 -0.283552 -0.878349
v -0.567104 -0.000000 1.720389
v -0.567104 -0.000000 -0.878349
v -0.491126 0.283551 1.720389
v -0.491126 0.283551 -0.878349
v -0.283552 0.491126 1.720389
v -0.283552 0.491126 -0.878349
v 0.271731 0.470652 2.582813
v 0.000000 0.543462 2.582813
v 0.470652 0.271731 2.582813
v 0.543462 -0.000000 2.582813
v 0.470652 -0.271731 2.582813
v 0.271731 -0.470652 2.582813
v 0.000000 -0.543462 2.582813
v -0.271731 -0.470652 2.582813
v -0.470652 -0.271731 2.582813
v -0.543462 -0.000000 2.582813
v -0.470652 0.271731 2.582813
v -0.271731 0.470652 2.582813
v 0.088071 0.152544 3.981616
v -0.000000 0.176143 3.981616
v 0.152544 0.088071 3.981616
v 0.176143 -0.000000 3.981616
v 0.152544 -0.088072 3.981616
v 0.088071 -0.152544 3.981616
v -0.000000 -0.176143 3.981616
v -0.088072 -0.152544 3.981616
v -0.152544 -0.088072 3.981616
v -0.176143 -0.000000 3.981616
v -0.152545 0.088071 3.981616
v -0.088072 0.152544 3.981616
v -0.063375 0.602744 -2.954854
v 0.252119 0.436682 -3.156634
v 0.553679 0.246488 -2.954854
v 0.602744 0.063375 -2.954854
v 0.436682 -0.252118 -3.156634
v 0.246488 -0.553679 -2.954854
v 0.063376 -0.602744 -2.954854
v -0.252118 -0.436682 -3.156634
v -0.553679 -0.246487 -2.954854
v -0.602744 -0.063375 -2.954854
v -0.436682 0.252118 -3.156634
v -0.246487 0.553679 -2.954854
v 0.536698 0.309863 -1.484894
v 0.619725 0.000000 -1.484894
v 0.309863 -0.536698 -1.484894
v 0.000000 -0.619725 -1.484894
v -0.536698 -0.309863 -1.484894
v -0.619725 -0.000000 -1.484894
v -0.309863 0.536698 -1.484894
v -0.000000 0.619725 -1.484894
v 0.436682 0.252119 -3.156634
v 0.504237 0.000000 -3.156634
v 0.252119 -0.436682 -3.156634
v 0.000000 -0.504237 -3.156634
v -0.436682 -0.252119 -3.156634
v -0.504237 -0.000000 -3.156634
v -0.252119 0.436682 -3.156634
v 0.000000 0.504237 -3.156634
v -0.530223 1.699229 -2.226343
v -0.390428 1.736687 -2.226343
v -0.390428 1.736687 -3.194520
v -0.530223 1.699229 -3.194520
v 1.699229 0.530223 -2.226340
v 1.736687 0.390428 -2.226340
v 1.736687 0.390428 -3.194517
v 1.699229 0.530223 -3.194517
v -1.699229 -0.530223 -2.226344
v -1.736687 -0.390429 -2.226344
v -1.736686 -0.390429 -3.194521
v -1.699228 -0.530223 -3.194521
v 0.530223 -1.699229 -2.226342
v 0.390428 -1.736687 -2.226342
v 0.390429 -1.736687 -3.194519
v 0.530223 -1.699229 -3.194519
v -0.000000 0.619725 1.840958
v -0.000000 0.619725 2.326934
v 0.619725 -0.000000 2.326934
v 0.536698 0.309863 2.326934
v 0.000000 -0.619725 2.326934
v 0.309863 -0.536698 2.326934
v -0.619725 -0.000000 2.326934
v -0.536698 -0.309863 2.326934
v -0.309863 0.536697 2.326934
v 0.536698 0.309863 1.840958
v 0.619725 -0.000000 1.840958
v 0.309863 -0.536698 1.840958
v 0.000000 -0.619725 1.840958
v -0.536698 -0.309863 1.840958
v -0.619725 -0.000000 1.840958
v -0.309863 0.536698 1.840958
v 0.831939 0.286204 1.755767
v 0.831939 0.286204 2.043303
v 0.863582 0.168109 2.043303
v 0.863582 0.168109 1.755767
v 0.286204 -0.831939 1.755767
v 0.286204 -0.831939 2.043302
v 0.168110 -0.863582 2.043302
v 0.168110 -0.863582 1.755767
v -0.831939 -0.286205 1.755767
v -0.831939 -0.286204 2.043302
v -0.863582 -0.168110 2.043303
v -0.863582 -0.168110 1.755767
v -0.286204 0.831938 1.755767
v -0.286204 0.831938 2.043303
v -0.168110 0.863582 2.043303
v -0.168110 0.863582 1.755767
v 0.000000 0.619725 -3.156634
v 0.309863 0.536698 -3.156634
v 0.536698 0.309863 -3.156634
v 0.619726 0.000000 -3.156634
v 0.536698 -0.309862 -3.156634
v 0.309863 -0.536698 -3.156634
v 0.000000 -0.619725 -3.156634
v -0.309862 -0.536698 -3.156634
v -0.536697 -0.309863 -3.156634
v -0.619725 -0.000000 -3.156634
v -0.536698 0.309862 -3.156634
v -0.309863 0.536698 -3.156634
v 0.000000 0.504237 -3.012609
v 0.252119 0.436682 -3.012609
v 0.436682 0.252119 -3.012609
v 0.504237 0.000000 -3.012609
v 0.436682 -0.252118 -3.012609
v 0.252119 -0.436682 -3.012609
v 0.000000 -0.504237 -3.012609
v -0.252118 -0.436682 -3.012609
v -0.436682 -0.252119 -3.012609
v -0.504237 -0.000000 -3.012609
v -0.436682 0.252118 -3.012609
v -0.252119 0.436682 -3.012609
vt 0.8114 0.0710
vt 0.7913 0.0710
vt 0.7913 0.0365
vt 0.8114 0.0365
vt 0.0178 0.7163
vt 0.0379 0.7163
vt 0.0379 0.7482
vt 0.0178 0.7482
vt 0.0178 0.7878
vt 0.0379 0.7878
vt 0.0379 0.8243
vt 0.0178 0.8243
vt 0.7650 0.7572
vt 0.7448 0.7572
vt 0.7448 0.7227
vt 0.7650 0.7227
vt 0.7650 0.6829
vt 0.7448 0.6829
vt 0.7448 0.6484
vt 0.7650 0.6484
vt 0.3861 0.7709
vt 0.3659 0.7709
vt 0.3659 0.7365
vt 0.3861 0.7365
vt 0.3861 0.6966
vt 0.3659 0.6966
vt 0.3659 0.6622
vt 0.3861 0.6622
vt 0.4698 0.8437
vt 0.4804 0.8052
vt 0.4889 0.8100
vt 0.4796 0.8437
vt 0.8114 0.1453
vt 0.7913 0.1453
vt 0.7913 0.1108
vt 0.8114 0.1108
vt 0.5659 0.7054
vt 0.5659 0.7420
vt 0.4965 0.7420
vt 0.4965 0.7054
vt 0.6813 0.3956
vt 0.6611 0.3956
vt 0.6611 0.3558
vt 0.6813 0.3558
vt 0.0718 0.3181
vt 0.1072 0.2982
vt 0.1090 0.3045
vt 0.0765 0.3227
vt 0.6813 0.4301
vt 0.6611 0.4301
vt 0.3272 0.0698
vt 0.3626 0.0499
vt 0.3644 0.0562
vt 0.3319 0.0744
vt 0.6813 0.4646
vt 0.6611 0.4646
vt 0.2041 0.3526
vt 0.2041 0.3924
vt 0.1976 0.3907
vt 0.1976 0.3543
vt 0.6813 0.5044
vt 0.6611 0.5044
vt 0.4036 0.1985
vt 0.3626 0.1985
vt 0.3644 0.1922
vt 0.4019 0.1922
vt 0.6813 0.5389
vt 0.6611 0.5389
vt 0.1072 0.4468
vt 0.0718 0.4269
vt 0.0765 0.4223
vt 0.1090 0.4405
vt 0.1027 0.6075
vt 0.1229 0.6075
vt 0.1229 0.6420
vt 0.1027 0.6420
vt 0.4391 0.0698
vt 0.4595 0.1043
vt 0.4530 0.1059
vt 0.4343 0.0744
vt 0.1027 0.5677
vt 0.1229 0.5677
vt 0.1482 0.2982
vt 0.1464 0.3045
vt 0.1027 0.5332
vt 0.1229 0.5332
vt 0.3067 0.1043
vt 0.3132 0.1059
vt 0.5861 0.7054
vt 0.5861 0.7420
vt 0.1836 0.4269
vt 0.1789 0.4223
vt 0.5659 0.6659
vt 0.5861 0.6659
vt 0.4391 0.1786
vt 0.4343 0.1739
vt 0.5659 0.6339
vt 0.5861 0.6339
vt 0.0513 0.3924
vt 0.0578 0.3907
vt 0.6611 0.3213
vt 0.6813 0.3213
vt 0.4036 0.0499
vt 0.4019 0.0562
vt 0.3222 0.5905
vt 0.3222 0.4856
vt 0.3597 0.4856
vt 0.3597 0.5905
vt 0.2898 0.5905
vt 0.2898 0.4856
vt 0.5300 0.4236
vt 0.5300 0.5285
vt 0.4976 0.5285
vt 0.4976 0.4236
vt 0.5675 0.4236
vt 0.5675 0.5285
vt 0.6000 0.4236
vt 0.6000 0.5285
vt 0.5675 0.4236
vt 0.5675 0.3187
vt 0.6000 0.3187
vt 0.5300 0.4236
vt 0.5300 0.3187
vt 0.4976 0.4236
vt 0.4976 0.3187
vt 0.5803 0.0352
vt 0.5803 0.1401
vt 0.5459 0.1401
vt 0.5459 0.0352
vt 0.6176 0.0352
vt 0.6176 0.1401
vt 0.6476 0.0352
vt 0.6476 0.1401
vt 0.3921 0.4856
vt 0.3921 0.5905
vt 0.4595 0.1441
vt 0.4530 0.1424
vt 0.1482 0.4468
vt 0.1464 0.4405
vt 0.3272 0.1786
vt 0.3319 0.1739
vt 0.3067 0.1441
vt 0.3132 0.1424
vt 0.1836 0.3181
vt 0.1789 0.3227
vt 0.0513 0.3526
vt 0.0578 0.3543
vt 0.3553 0.7340
vt 0.3553 0.7643
vt 0.2972 0.7320
vt 0.2972 0.7222
vt 0.7342 0.7203
vt 0.7342 0.6854
vt 0.6717 0.1886
vt 0.6717 0.2285
vt 0.6623 0.2260
vt 0.6623 0.1911
vt 0.0485 0.7864
vt 0.0485 0.8185
vt 0.7806 0.1084
vt 0.7806 0.0734
vt 0.4331 0.5147
vt 0.4437 0.4762
vt 0.4521 0.4809
vt 0.4428 0.5147
vt 0.0485 0.7517
vt 0.5122 0.8822
vt 0.5016 0.8437
vt 0.5114 0.8437
vt 0.5207 0.8774
vt 0.4437 0.5531
vt 0.4521 0.5484
vt 0.5122 0.8052
vt 0.5207 0.8100
vt 0.3553 0.6991
vt 0.4804 0.8822
vt 0.4889 0.8774
vt 0.5254 0.2162
vt 0.5254 0.2049
vt 0.5312 0.1951
vt 0.5413 0.1894
vt 0.5529 0.1894
vt 0.5630 0.1951
vt 0.5688 0.2049
vt 0.5688 0.2162
vt 0.5630 0.2260
vt 0.5529 0.2317
vt 0.5413 0.2317
vt 0.5312 0.2260
vt 0.7342 0.7505
vt 0.6761 0.7183
vt 0.6761 0.7085
vt 0.7226 0.0966
vt 0.7226 0.0852
vt 0.0485 0.7237
vt 0.1066 0.7595
vt 0.1066 0.7686
vt 0.2972 0.7109
vt 0.6761 0.6972
vt 0.1066 0.7798
vt 0.3553 0.6689
vt 0.2972 0.7011
vt 0.7342 0.6551
vt 0.6761 0.6874
vt 0.1066 0.7902
vt 0.7806 0.1386
vt 0.7226 0.1064
vt 0.7806 0.0432
vt 0.7226 0.0754
vt 0.6209 0.6890
vt 0.6209 0.7171
vt 0.6149 0.7171
vt 0.6149 0.6890
vt 0.7507 0.3213
vt 0.7507 0.3558
vt 0.7507 0.3956
vt 0.7507 0.4301
vt 0.4965 0.6659
vt 0.4965 0.6339
vt 0.7507 0.4646
vt 0.7507 0.5044
vt 0.7507 0.5389
vt 0.0333 0.6420
vt 0.0333 0.6075
vt 0.0333 0.5677
vt 0.0333 0.5332
vt 0.5575 0.6973
vt 0.5575 0.6739
vt 0.0943 0.5993
vt 0.0943 0.5758
vt 0.6897 0.4728
vt 0.6897 0.4963
vt 0.6897 0.3640
vt 0.6897 0.3875
vt 0.5049 0.6739
vt 0.5049 0.6973
vt 0.0417 0.5758
vt 0.0417 0.5993
vt 0.7423 0.4963
vt 0.7423 0.4728
vt 0.7423 0.3875
vt 0.7423 0.3640
vt 0.8006 0.1949
vt 0.8190 0.1949
vt 0.8190 0.2340
vt 0.8006 0.2340
vt 0.4120 0.8213
vt 0.4149 0.6748
vt 0.4334 0.6748
vt 0.4362 0.8213
vt 0.9440 0.8037
vt 0.9440 0.9491
vt 0.9039 0.9465
vt 0.8915 0.8003
vt 0.8374 0.1956
vt 0.8402 0.0491
vt 0.8587 0.0491
vt 0.8616 0.1956
vt 0.8037 0.4487
vt 0.8161 0.3012
vt 0.8562 0.2986
vt 0.8562 0.4454
vt 0.7092 0.8068
vt 0.7276 0.8068
vt 0.7276 0.8459
vt 0.7092 0.8459
vt 0.9183 0.1956
vt 0.9211 0.0491
vt 0.9396 0.0491
vt 0.9425 0.1956
vt 0.8562 0.5531
vt 0.8562 0.6999
vt 0.8161 0.6973
vt 0.8037 0.5498
vt 0.9020 0.0491
vt 0.8991 0.1956
vt 0.8807 0.1956
vt 0.8778 0.0491
vt 0.1694 0.9480
vt 0.1818 0.8004
vt 0.2219 0.7978
vt 0.2219 0.9446
vt 0.6969 0.8459
vt 0.6784 0.8459
vt 0.6784 0.8068
vt 0.6969 0.8068
vt 0.9919 0.5484
vt 0.9890 0.6949
vt 0.9705 0.6949
vt 0.9677 0.5484
vt 0.9440 0.5531
vt 0.9440 0.6999
vt 0.9039 0.6973
vt 0.8915 0.5498
vt 0.9587 0.1956
vt 0.9616 0.0491
vt 0.9800 0.0491
vt 0.9829 0.1956
vt 0.8915 0.4487
vt 0.9039 0.3012
vt 0.9440 0.2986
vt 0.9440 0.4454
vt 0.6273 0.8316
vt 0.6088 0.8316
vt 0.6088 0.7925
vt 0.6273 0.7925
vt 0.9677 0.9396
vt 0.9705 0.7932
vt 0.9890 0.7932
vt 0.9919 0.9396
vt 0.2219 0.5506
vt 0.2219 0.6973
vt 0.1818 0.6948
vt 0.1694 0.5472
vt 0.9919 0.2975
vt 0.9890 0.4439
vt 0.9705 0.4439
vt 0.9677 0.2975
vt 0.8037 0.9497
vt 0.8161 0.8028
vt 0.8562 0.8002
vt 0.8562 0.9463
vt 0.8100 0.0799
vt 0.7927 0.0799
vt 0.0365 0.7789
vt 0.0365 0.7570
vt 0.7462 0.6918
vt 0.7462 0.7138
vt 0.3673 0.7055
vt 0.3673 0.7276
vt 0.7927 0.1019
vt 0.0192 0.7570
vt 0.0192 0.7789
vt 0.7636 0.7138
vt 0.7636 0.6918
vt 0.3847 0.7276
vt 0.3847 0.7055
vt 0.8100 0.1019
vt 0.7784 0.8392
vt 0.7664 0.8392
vt 0.7664 0.8241
vt 0.7784 0.8241
vt 0.5335 0.8870
vt 0.5388 0.8513
vt 0.5507 0.8497
vt 0.5507 0.8847
vt 0.5723 0.8257
vt 0.5758 0.7911
vt 0.5914 0.7911
vt 0.5950 0.8257
vt 0.3366 0.8224
vt 0.3366 0.8574
vt 0.3248 0.8558
vt 0.3194 0.8201
vt 0.6646 0.8053
vt 0.6611 0.8400
vt 0.6455 0.8400
vt 0.6419 0.8053
vt 0.7620 0.8025
vt 0.7739 0.8025
vt 0.7739 0.8177
vt 0.7620 0.8177
vt 0.7448 0.8399
vt 0.7502 0.8041
vt 0.7620 0.8376
vt 0.7868 0.1934
vt 0.7832 0.2281
vt 0.7676 0.2281
vt 0.7641 0.1934
vt 0.2792 0.8224
vt 0.2792 0.8574
vt 0.2674 0.8558
vt 0.2621 0.8201
vt 0.7262 0.2281
vt 0.7298 0.1934
vt 0.7454 0.1934
vt 0.7489 0.2281
vt 0.6288 0.7671
vt 0.6169 0.7671
vt 0.6169 0.7519
vt 0.6288 0.7519
vt 0.3481 0.8571
vt 0.3535 0.8214
vt 0.3653 0.8198
vt 0.3653 0.8548
vt 0.5571 0.7911
vt 0.5536 0.8257
vt 0.5380 0.8257
vt 0.5344 0.7911
vt 0.3079 0.8224
vt 0.3079 0.8574
vt 0.2961 0.8558
vt 0.2908 0.8201
vt 0.6884 0.2281
vt 0.6919 0.1934
vt 0.7075 0.1934
vt 0.7110 0.2281
vt 0.4305 0.5840
vt 0.4424 0.5840
vt 0.4424 0.5992
vt 0.4305 0.5992
vt 0.3768 0.8571
vt 0.3822 0.8214
vt 0.3940 0.8198
vt 0.3940 0.8548
vt 0.6137 0.1869
vt 0.6102 0.2215
vt 0.5945 0.2215
vt 0.5910 0.1869
vt 0.5885 0.8521
vt 0.5885 0.8865
vt 0.5767 0.8848
vt 0.5714 0.8498
vt 0.6289 0.2215
vt 0.6324 0.1869
vt 0.6480 0.1869
vt 0.6516 0.2215
vt 0.0822 0.0799
vt 0.0655 0.1080
vt 0.0513 0.1043
vt 0.0718 0.0698
vt 0.1110 0.0637
vt 0.1072 0.0499
vt 0.1444 0.0637
vt 0.1482 0.0499
vt 0.1732 0.0799
vt 0.1836 0.0698
vt 0.1899 0.1080
vt 0.2041 0.1043
vt 0.1899 0.1404
vt 0.2041 0.1441
vt 0.1732 0.1684
vt 0.1836 0.1786
vt 0.1444 0.1846
vt 0.1482 0.1985
vt 0.1110 0.1846
vt 0.1072 0.1985
vt 0.0822 0.1684
vt 0.0718 0.1786
vt 0.0655 0.1404
vt 0.0513 0.1441
vt 0.3427 0.4098
vt 0.3138 0.3936
vt 0.2971 0.3656
vt 0.2971 0.3332
vt 0.3138 0.3051
vt 0.3427 0.2889
vt 0.3760 0.2889
vt 0.4048 0.3051
vt 0.4215 0.3332
vt 0.4215 0.3656
vt 0.4048 0.3936
vt 0.3760 0.4098
vt 0.4503 0.6367
vt 0.4503 0.6086
vt 0.4563 0.6086
vt 0.4563 0.6367
vt 0.2395 0.6149
vt 0.2395 0.5868
vt 0.2454 0.5868
vt 0.2454 0.6149
vt 0.2395 0.5544
vt 0.2395 0.5264
vt 0.2454 0.5264
vt 0.2454 0.5544
vt 0.6309 0.6275
vt 0.6309 0.6535
vt 0.6249 0.6535
vt 0.6249 0.6275
vt 0.6209 0.6286
vt 0.6209 0.6566
vt 0.6149 0.6566
vt 0.6149 0.6286
vt 0.4503 0.6971
vt 0.4503 0.6691
vt 0.4563 0.6691
vt 0.4563 0.6971
vt 0.6309 0.6857
vt 0.6249 0.6857
vt 0.6309 0.7154
vt 0.6249 0.7154
vn 0.2588 0.9659 0.0000
vn 0.7071 0.7071 0.0000
vn 0.9659 -0.2588 -0.0000
vn 0.7071 -0.7071 -0.0000
vn -0.2588 -0.9659 -0.0000
vn -0.7071 -0.7071 -0.0000
vn -0.9659 0.2588 0.0000
vn -0.2487 -0.9282 0.2767
vn -0.7071 0.7071 0.0000
vn -0.2588 0.9659 0.0000
vn 0.6516 0.6516 -0.3885
vn -0.8901 -0.2385 0.3885
vn 0.2385 -0.8901 -0.3885
vn -0.9659 -0.2588 -0.0000
vn 0.6516 0.6516 0.3885
vn -0.8901 0.2385 -0.3885
vn 0.2385 -0.8901 0.3885
vn 0.2588 -0.9659 0.0000
vn 0.8901 0.2385 -0.3885
vn -0.8901 0.2385 0.3885
vn -0.2385 -0.8901 -0.3885
vn 0.9659 0.2588 0.0000
vn 0.8901 0.2385 0.3885
vn -0.6516 0.6516 -0.3885
vn -0.2385 -0.8901 0.3885
vn 0.6516 -0.6516 0.3885
vn -0.8901 -0.2385 -0.3885
vn 0.2385 0.8901 0.3885
vn -0.2385 0.8901 0.3885
vn 0.6516 -0.6516 -0.3885
vn -0.6516 -0.6516 0.3885
vn 0.2385 0.8901 -0.3885
vn -0.2385 0.8901 -0.3885
vn 0.8901 -0.2385 0.3885
vn -0.6516 -0.6516 -0.3885
vn -0.6516 0.6516 0.3885
vn 0.8901 -0.2385 -0.3885
vn -0.6854 -0.6854 0.2459
vn 0.2487 -0.9282 0.2767
vn 0.6795 -0.6795 0.2767
vn 0.9282 -0.2487 0.2767
vn -0.2487 0.9282 0.2767
vn 0.2487 0.9282 0.2767
vn 0.9282 0.2487 0.2767
vn -0.6795 0.6795 0.2767
vn 0.6795 0.6795 0.2767
vn -0.9282 0.2487 0.2767
vn -0.9282 -0.2487 0.2767
vn -0.6795 -0.6795 0.2767
vn 0.0000 0.0000 1.0000
vn 0.6854 -0.6854 0.2459
vn -0.2509 0.9363 0.2459
vn 0.6854 0.6854 0.2459
vn -0.9363 -0.2509 0.2459
vn 0.2509 -0.9363 0.2459
vn 0.9363 0.2509 0.2459
vn -0.9363 0.2509 0.2459
vn -0.2509 -0.9363 0.2459
vn 0.9363 -0.2509 0.2459
vn -0.6854 0.6854 0.2459
vn 0.2509 0.9363 0.2459
vn -0.1077 0.4018 0.9094
vn 0.9608 0.2771 0.0000
vn 0.0515 -0.1923 -0.9800
vn -0.9707 -0.2404 -0.0000
vn 0.4018 0.1076 0.9094
vn 0.2771 -0.9608 0.0000
vn -0.1923 -0.0515 -0.9800
vn -0.2404 0.9707 -0.0000
vn -0.4018 -0.1077 0.9094
vn -0.2771 0.9608 -0.0000
vn 0.1923 0.0515 -0.9800
vn 0.2404 -0.9707 0.0000
vn 0.1077 -0.4018 0.9094
vn -0.9608 -0.2771 -0.0000
vn -0.0515 0.1923 -0.9800
vn 0.9707 0.2404 0.0000
vn -0.1624 0.9867 0.0000
vn 0.6437 0.1725 0.7456
vn 0.3527 -0.9357 0.0000
vn -0.3800 -0.1018 -0.9194
vn 0.9867 0.1624 0.0000
vn 0.1725 -0.6437 0.7456
vn -0.9357 -0.3527 0.0000
vn -0.1018 0.3800 -0.9194
vn 0.1624 -0.9867 0.0000
vn -0.6437 -0.1725 0.7456
vn -0.3528 0.9357 0.0000
vn 0.3800 0.1018 -0.9194
vn -0.9867 -0.1624 0.0000
vn -0.1725 0.6437 0.7456
vn 0.9357 0.3527 0.0000
vn 0.1018 -0.3800 -0.9194
vn 0.0000 0.0000 -1.0000
usemtl None
s off
f 141/1/1 142/2/1 4/3/1 27/4/1
f 27/5/2 4/6/2 144/7/2 150/8/2
f 151/9/3 143/10/3 10/11/3 33/12/3
f 33/13/4 10/14/4 146/15/4 152/16/4
f 153/17/5 145/18/5 16/19/5 39/20/5
f 39/21/6 16/22/6 148/23/6 154/24/6
f 155/25/7 147/26/7 22/27/7 45/28/7
f 16/29/8 145/30/8 79/31/8 80/32/8
f 45/33/9 22/34/9 149/35/9 156/36/9
f 110/37/3 9/38/3 177/39/3 176/40/3
f 115/41/10 48/42/10 25/43/10 116/44/10
f 27/45/11 150/46/11 53/47/11 51/48/11
f 21/49/9 46/50/9 48/42/9 115/41/9
f 44/51/12 42/52/12 66/53/12 68/54/12
f 114/55/7 44/56/7 46/50/7 21/49/7
f 152/57/13 153/58/13 61/59/13 59/60/13
f 113/61/14 42/62/14 44/56/14 114/55/14
f 30/63/15 28/64/15 52/65/15 54/66/15
f 15/67/6 40/68/6 42/62/6 113/61/6
f 155/69/16 45/70/16 69/71/16 67/72/16
f 112/73/5 38/74/5 40/75/5 15/76/5
f 38/77/17 36/78/17 60/79/17 62/80/17
f 111/81/18 36/82/18 38/74/18 112/73/18
f 150/46/19 151/83/19 55/84/19 53/47/19
f 9/85/4 34/86/4 36/82/4 111/81/4
f 46/87/20 44/51/20 68/54/20 70/88/20
f 110/37/3 32/89/3 34/90/3 9/38/3
f 153/58/21 39/91/21 63/92/21 61/59/21
f 109/93/22 30/94/22 32/89/22 110/37/22
f 32/95/23 30/63/23 54/66/23 56/96/23
f 3/97/2 28/98/2 30/94/2 109/93/2
f 45/70/24 156/99/24 71/100/24 69/71/24
f 116/44/1 25/43/1 28/101/1 3/102/1
f 40/103/25 38/77/25 62/80/25 64/104/25
f 72/105/10 71/106/10 50/107/10 49/108/10
f 70/109/9 69/110/9 71/106/9 72/105/9
f 68/111/7 67/112/7 69/113/7 70/114/7
f 66/115/14 65/116/14 67/112/14 68/111/14
f 64/117/6 63/118/6 65/116/6 66/115/6
f 62/119/5 61/120/5 63/121/5 64/117/5
f 60/122/18 59/123/18 61/120/18 62/119/18
f 58/124/4 57/125/4 59/123/4 60/122/4
f 56/126/3 55/127/3 57/128/3 58/129/3
f 54/130/22 53/131/22 55/127/22 56/126/22
f 52/132/2 51/133/2 53/131/2 54/130/2
f 49/108/1 50/107/1 51/134/1 52/135/1
f 36/78/26 34/136/26 58/137/26 60/79/26
f 154/138/27 155/69/27 67/72/27 65/139/27
f 28/64/28 25/140/28 49/141/28 52/65/28
f 25/140/29 48/142/29 72/143/29 49/141/29
f 33/144/30 152/57/30 59/60/30 57/145/30
f 42/52/31 40/103/31 64/104/31 66/53/31
f 141/146/32 27/45/32 51/48/32 50/147/32
f 156/99/33 141/146/33 50/147/33 71/100/33
f 34/136/34 32/95/34 56/96/34 58/137/34
f 39/91/35 154/138/35 65/139/35 63/92/35
f 48/142/36 46/87/36 70/88/36 72/143/36
f 151/83/37 33/144/37 57/145/37 55/84/37
f 81/148/38 80/149/38 92/150/38 93/151/38
f 145/18/39 146/15/39 78/152/39 79/153/39
f 146/154/40 10/155/40 77/156/40 78/157/40
f 10/11/41 143/10/41 76/158/41 77/159/41
f 142/2/42 149/35/42 84/160/42 74/161/42
f 4/162/43 142/163/43 74/164/43 73/165/43
f 143/10/44 144/7/44 75/166/44 76/158/44
f 149/167/45 22/168/45 83/169/45 84/170/45
f 144/171/46 4/162/46 73/165/46 75/172/46
f 22/168/47 147/173/47 82/174/47 83/169/47
f 147/26/48 148/23/48 81/148/48 82/175/48
f 148/176/49 16/29/49 80/32/49 81/177/49
f 85/178/50 86/179/50 96/180/50 95/181/50 94/182/50 93/183/50 92/184/50 91/185/50 90/186/50 89/187/50 88/188/50 87/189/50
f 78/152/51 77/190/51 89/191/51 90/192/51
f 74/161/52 84/160/52 96/193/52 86/194/52
f 75/166/53 73/195/53 85/196/53 87/197/53
f 82/175/54 81/148/54 93/151/54 94/198/54
f 79/153/55 78/152/55 90/192/55 91/199/55
f 76/158/56 75/166/56 87/197/56 88/200/56
f 83/201/57 82/175/57 94/198/57 95/202/57
f 80/203/58 79/153/58 91/199/58 92/204/58
f 77/159/59 76/158/59 88/200/59 89/205/59
f 84/160/60 83/206/60 95/207/60 96/193/60
f 73/208/61 74/161/61 86/194/61 85/209/61
f 120/210/1 104/211/1 192/212/1 191/213/1
f 116/44/1 3/102/1 174/214/1 173/215/1
f 21/49/9 115/41/9 184/216/9 183/217/9
f 3/97/2 109/93/2 175/218/2 174/219/2
f 114/55/7 21/49/7 183/217/7 182/220/7
f 15/67/6 113/61/6 181/221/6 180/222/6
f 112/73/5 15/76/5 180/223/5 179/224/5
f 9/85/4 111/81/4 178/225/4 177/226/4
f 7/227/22 5/228/22 109/93/22 110/37/22
f 13/229/18 11/230/18 111/81/18 112/73/18
f 19/231/14 17/232/14 113/61/14 114/55/14
f 1/233/10 23/234/10 115/41/10 116/44/10
f 99/235/22 100/236/22 176/40/22 175/218/22
f 102/237/18 103/238/18 179/224/18 178/225/18
f 105/239/14 106/240/14 182/220/14 181/221/14
f 108/241/10 97/242/10 173/215/10 184/216/10
f 100/236/22 7/227/22 110/37/22 176/40/22
f 97/242/10 1/233/10 116/44/10 173/215/10
f 23/234/10 108/241/10 184/216/10 115/41/10
f 5/228/22 99/235/22 175/218/22 109/93/22
f 106/240/14 19/231/14 114/55/14 182/220/14
f 17/232/14 105/239/14 181/221/14 113/61/14
f 103/238/18 13/229/18 112/73/18 179/224/18
f 11/230/18 102/237/18 178/225/18 111/81/18
f 125/243/10 126/244/10 127/245/10 128/246/10
f 1/247/62 126/248/62 125/249/62 23/250/62
f 97/251/63 127/252/63 126/253/63 1/254/63
f 108/255/64 128/256/64 127/257/64 97/258/64
f 23/259/65 125/260/65 128/261/65 108/262/65
f 129/263/22 130/264/22 131/265/22 132/266/22
f 7/267/66 130/268/66 129/269/66 5/270/66
f 100/271/67 131/272/67 130/273/67 7/274/67
f 99/275/68 132/276/68 131/277/68 100/278/68
f 5/279/69 129/280/69 132/281/69 99/282/69
f 133/283/14 134/284/14 135/285/14 136/286/14
f 19/287/70 134/288/70 133/289/70 17/290/70
f 106/291/71 135/292/71 134/293/71 19/294/71
f 105/295/72 136/296/72 135/297/72 106/298/72
f 17/299/73 133/300/73 136/301/73 105/302/73
f 137/303/18 138/304/18 139/305/18 140/306/18
f 13/307/74 138/308/74 137/309/74 11/310/74
f 103/311/75 139/312/75 138/313/75 13/314/75
f 102/315/76 140/316/76 139/317/76 103/318/76
f 11/319/77 137/320/77 140/321/77 102/322/77
f 26/323/10 2/324/10 142/2/10 141/1/10
f 8/325/22 6/326/22 144/7/22 143/10/22
f 14/327/18 12/328/18 146/15/18 145/18/18
f 20/329/14 18/330/14 148/23/14 147/26/14
f 2/324/10 24/331/10 149/35/10 142/2/10
f 6/326/22 29/332/22 150/8/22 144/7/22
f 31/333/22 8/325/22 143/10/22 151/9/22
f 12/328/18 35/334/18 152/16/18 146/15/18
f 37/335/18 14/327/18 145/18/18 153/17/18
f 18/330/14 41/336/14 154/24/14 148/23/14
f 43/337/14 20/329/14 147/26/14 155/25/14
f 24/331/10 47/338/10 156/36/10 149/35/10
f 47/338/10 26/323/10 141/1/10 156/36/10
f 41/336/14 43/337/14 155/25/14 154/24/14
f 35/334/18 37/335/18 153/17/18 152/16/18
f 29/332/22 31/333/22 151/9/22 150/8/22
f 157/339/22 158/340/22 159/341/22 160/342/22
f 6/343/78 158/344/78 157/345/78 29/346/78
f 8/347/79 159/348/79 158/349/79 6/350/79
f 31/351/80 160/352/80 159/353/80 8/354/80
f 29/355/81 157/356/81 160/357/81 31/358/81
f 161/359/18 162/360/18 163/361/18 164/362/18
f 12/363/82 162/364/82 161/359/82 35/365/82
f 14/366/83 163/367/83 162/368/83 12/369/83
f 37/370/84 164/371/84 163/372/84 14/373/84
f 35/374/85 161/375/85 164/376/85 37/377/85
f 165/378/14 166/379/14 167/380/14 168/381/14
f 18/382/86 166/383/86 165/384/86 41/385/86
f 20/386/87 167/387/87 166/388/87 18/389/87
f 43/390/88 168/391/88 167/392/88 20/393/88
f 41/394/89 165/395/89 168/396/89 43/397/89
f 169/398/10 170/399/10 171/400/10 172/401/10
f 24/402/90 170/403/90 169/404/90 47/405/90
f 2/406/91 171/407/91 170/408/91 24/409/91
f 26/410/92 172/411/92 171/412/92 2/413/92
f 47/414/93 169/415/93 172/416/93 26/417/93
f 98/418/94 124/419/94 173/420/94 174/421/94
f 117/422/94 98/418/94 174/421/94 175/423/94
f 118/424/94 117/422/94 175/423/94 176/425/94
f 101/426/94 118/424/94 176/425/94 177/427/94
f 119/428/94 101/426/94 177/427/94 178/429/94
f 120/430/94 119/428/94 178/429/94 179/431/94
f 104/432/94 120/430/94 179/431/94 180/433/94
f 121/434/94 104/432/94 180/433/94 181/435/94
f 122/436/94 121/434/94 181/435/94 182/437/94
f 107/438/94 122/436/94 182/437/94 183/439/94
f 123/440/94 107/438/94 183/439/94 184/441/94
f 124/419/94 123/440/94 184/441/94 173/420/94
f 185/442/94 186/443/94 187/444/94 188/445/94 189/446/94 190/447/94 191/448/94 192/449/94 193/450/94 194/451/94 195/452/94 196/453/94
f 118/454/7 101/455/7 189/456/7 188/457/7
f 107/458/4 123/459/4 196/460/4 195/461/4
f 124/462/5 98/463/5 186/464/5 185/465/5
f 104/466/2 121/467/2 193/468/2 192/469/2
f 101/470/9 119/471/9 190/472/9 189/473/9
f 123/459/18 124/462/18 185/465/18 196/460/18
f 98/474/6 117/475/6 187/476/6 186/477/6
f 121/467/22 122/478/22 194/479/22 193/468/22
f 119/471/10 120/210/10 191/213/10 190/472/10
f 117/475/14 118/454/14 188/457/14 187/476/14
f 122/478/3 107/480/3 195/481/3 194/479/3
